<svg width="108" height="33" fill="none" xmlns="http://www.w3.org/2000/svg"><path fill-rule="evenodd" clip-rule="evenodd" d="M66.673 25.328c-6.244 4.609-15.296 7.059-23.092 7.059-10.926 0-20.764-4.039-28.208-10.76-.585-.529-.063-1.25.639-.841 8.032 4.675 17.966 7.489 28.225 7.489 6.92 0 14.527-1.437 21.528-4.405 1.056-.449 1.942.695.908 1.458Z" fill="#F90"/><path fill-rule="evenodd" clip-rule="evenodd" d="M69.27 22.362c-.798-1.022-5.278-.484-7.291-.244-.609.073-.705-.46-.155-.845 3.575-2.51 9.431-1.785 10.112-.946.685.849-.18 6.72-3.53 9.522-.515.43-1.006.2-.776-.367.753-1.884 2.44-6.097 1.64-7.12Z" fill="#F90"/><path fill-rule="evenodd" clip-rule="evenodd" d="M62.12 3.539v-2.44a.601.601 0 0 1 .62-.618L73.674.48c.348 0 .63.254.63.615v2.092c-.005.352-.3.81-.825 1.536l-5.662 8.086c2.101-.049 4.326.267 6.236 1.34.43.24.545.6.58.951v2.604c0 .357-.393.774-.806.558-3.365-1.763-7.83-1.956-11.551.02-.38.204-.778-.207-.778-.565v-2.474c0-.397.006-1.074.407-1.676l6.56-9.413-5.713-.002c-.349 0-.63-.249-.631-.613ZM83.716.166c4.936 0 7.605 4.238 7.605 9.628 0 5.207-2.947 9.34-7.605 9.34-4.843 0-7.484-4.24-7.484-9.521 0-5.317 2.67-9.447 7.484-9.447Zm.03 3.485c-2.453 0-2.608 3.34-2.608 5.424 0 2.083-.03 6.537 2.578 6.537 2.577 0 2.7-3.592 2.7-5.783 0-1.437-.061-3.161-.497-4.527-.372-1.184-1.117-1.651-2.173-1.651ZM53.406 10.621c0 1.296.031 2.377-.622 3.529-.529.935-1.37 1.512-2.302 1.512-1.277 0-2.023-.972-2.023-2.412 0-2.833 2.542-3.349 4.947-3.349v.72Zm3.354 8.11c-.22.198-.622.204-.786.077-1.136-.879-1.907-2.216-1.907-2.216-1.826 1.86-3.12 2.42-5.483 2.42-2.801 0-4.98-1.731-4.98-5.186 0-2.7 1.463-4.537 3.548-5.436 1.804-.794 4.325-.937 6.254-1.153 0 0 .16-2.084-.404-2.844-.439-.589-1.182-.864-1.867-.864-1.233-.006-2.425.666-2.663 1.957-.067.368-.34.68-.627.648l-3.185-.347a.586.586 0 0 1-.497-.695C44.904 1.182 48.435 0 51.602 0c1.617 0 3.733.432 5.01 1.657 1.617 1.512 1.462 3.527 1.462 5.724v5.182c0 1.56.647 2.243 1.255 3.082.212.305.26.663-.01.884-.68.57-2.56 2.203-2.56 2.203ZM9.801 10.621c0 1.296.032 2.377-.621 3.529-.529.935-1.37 1.512-2.302 1.512-1.277 0-2.023-.972-2.023-2.412 0-2.833 2.542-3.349 4.946-3.349v.72Zm3.354 8.11c-.22.198-.621.204-.785.077-1.137-.879-1.907-2.216-1.907-2.216-1.826 1.86-3.12 2.42-5.484 2.42C2.18 19.011 0 17.28 0 13.825c0-2.7 1.463-4.537 3.547-5.436 1.805-.794 4.326-.937 6.254-1.153 0 0 .162-2.084-.404-2.844-.438-.589-1.182-.864-1.866-.864-1.235-.006-2.427.666-2.663 1.957-.068.368-.34.68-.627.648l-3.185-.347a.584.584 0 0 1-.497-.695C1.299 1.182 4.83 0 7.998 0c1.617 0 3.733.432 5.01 1.657 1.617 1.512 1.462 3.527 1.462 5.724v5.182c0 1.56.647 2.243 1.254 3.082.213.305.261.663-.01.884-.68.57-2.559 2.203-2.559 2.203ZM22.882 9.111c0-1.977-.093-4.707 2.297-4.707 2.36 0 2.05 2.802 2.05 4.707l.003 9.05c0 .326.264.593.597.612h3.323a.627.627 0 0 0 .641-.613V9.11c0-.97-.03-2.407.311-3.269.341-.862 1.18-1.402 1.987-1.402.962 0 1.708.324 1.956 1.473.155.683.093 2.48.093 3.198l.002 9.05c0 .326.262.593.596.612h3.322a.626.626 0 0 0 .641-.613l.004-10.773c0-1.833.217-3.916-.84-5.353-.93-1.293-2.451-1.868-3.85-1.868-1.955 0-3.786 1.006-4.594 3.162-.932-2.156-2.236-3.162-4.316-3.162-2.049 0-3.57 1.006-4.377 3.162h-.063v-2.18a.621.621 0 0 0-.622-.622h-3.104a.62.62 0 0 0-.62.621v17.006c0 .342.277.62.62.62h3.322a.621.621 0 0 0 .621-.62V9.11ZM98.373 18.152a.621.621 0 0 1-.621.622H94.43a.621.621 0 0 1-.62-.622V1.147c0-.343.278-.622.62-.622h3.071c.36 0 .622.29.622.487v2.602h.064c.931-2.335 2.235-3.448 4.532-3.448 1.492 0 2.95.539 3.882 2.012.871 1.364.871 3.663.871 5.316v10.742a.633.633 0 0 1-.639.538h-3.335a.625.625 0 0 1-.591-.538l.005-10.315c0-3.452-1.322-3.553-2.084-3.553-.888 0-1.603.694-1.916 1.341-.464 1.043-.539 2.108-.539 3.258v9.185Z" fill="#221F1F"/></svg>