<svg width="107" height="49" fill="none" xmlns="http://www.w3.org/2000/svg"><g filter="url(#a)"><path d="m3.997 43.999-.097-.637c-.285.25-.612.446-.965.58a2.845 2.845 0 0 1-1.046.212 1.878 1.878 0 0 1-1.378-.498 1.714 1.714 0 0 1-.52-1.322 1.78 1.78 0 0 1 .633-1.427 2.575 2.575 0 0 1 1.695-.53 6.322 6.322 0 0 1 1.532.212v-.816a1.198 1.198 0 0 0-.3-.93 1.493 1.493 0 0 0-1.013-.27 6.587 6.587 0 0 0-2.133.384v-.849a3.836 3.836 0 0 1 1.07-.359 6.077 6.077 0 0 1 1.274-.13c.604-.05 1.205.12 1.694.481a1.853 1.853 0 0 1 .551 1.469v4.43h-.997Zm-1.824-.759a2.852 2.852 0 0 0 1.678-.628v-1.24a5.27 5.27 0 0 0-1.289-.163c-.908 0-1.37.359-1.37 1.06a.96.96 0 0 0 .26.718.996.996 0 0 0 .729.253h-.008Zm8.78.759v-4.145c.029-.34-.066-.679-.267-.954a1.012 1.012 0 0 0-.81-.302c-.676.01-1.331.226-1.882.62v4.78H6.786v-6.2h1.006l.121.686a3.981 3.981 0 0 1 2.433-.865 1.781 1.781 0 0 1 1.346.473 1.846 1.846 0 0 1 .462 1.387v4.553l-1.2-.033Zm51.267-.237a3.476 3.476 0 0 1-1.621.367 2.846 2.846 0 0 1-2.19-.816 4.097 4.097 0 0 1 0-4.788 2.885 2.885 0 0 1 2.214-.816 3.51 3.51 0 0 1 1.532.342v.865a4.48 4.48 0 0 0-1.346-.253 1.839 1.839 0 0 0-1.467.522 2.459 2.459 0 0 0-.446 1.632v.155c-.047.581.114 1.16.454 1.632a1.807 1.807 0 0 0 1.435.522 4.835 4.835 0 0 0 1.435-.245v.881Zm3.778.416a2.749 2.749 0 0 1-2.165-.864 4.096 4.096 0 0 1 0-4.83 3.136 3.136 0 0 1 4.322 0 4.096 4.096 0 0 1 0 4.83 2.748 2.748 0 0 1-2.157.864Zm0-.979c1.135 0 1.711-.767 1.711-2.309 0-1.541-.576-2.292-1.71-2.292-1.136 0-1.711.759-1.711 2.292 0 1.534.567 2.31 1.71 2.31Zm12.284.8v-4.21a1.451 1.451 0 0 0-.227-.897.876.876 0 0 0-.73-.294 3.391 3.391 0 0 0-1.784.547c.005.062.005.125 0 .187V44h-1.2v-4.21a1.5 1.5 0 0 0-.227-.897.875.875 0 0 0-.73-.294 3.277 3.277 0 0 0-1.775.538v4.895h-1.2v-6.2h1.005l.122.628a4.038 4.038 0 0 1 2.27-.816 1.516 1.516 0 0 1 1.54.84 4.038 4.038 0 0 1 2.433-.864 1.677 1.677 0 0 1 1.29.473c.313.39.462.888.413 1.387v4.553l-1.2-.033Zm2.975 2.513v-8.714h1.006l.113.637a3.006 3.006 0 0 1 2.052-.816 2.233 2.233 0 0 1 1.856.816c.486.68.726 1.505.681 2.341a3.762 3.762 0 0 1-.721 2.448 2.313 2.313 0 0 1-1.906.905 2.682 2.682 0 0 1-1.88-.718v3.1h-1.2Zm2.83-7.914a2.706 2.706 0 0 0-1.621.563v3.402c.461.37 1.031.576 1.621.587 1.119 0 1.67-.758 1.67-2.268a2.894 2.894 0 0 0-.405-1.721 1.429 1.429 0 0 0-1.265-.563Zm7.978 5.4-.097-.636c-.285.25-.612.446-.965.58a2.893 2.893 0 0 1-1.054.212 1.893 1.893 0 0 1-1.378-.498 1.739 1.739 0 0 1-.511-1.322 1.78 1.78 0 0 1 .624-1.427 2.583 2.583 0 0 1 1.703-.53 6.321 6.321 0 0 1 1.532.212v-.816a1.232 1.232 0 0 0-.3-.93 1.493 1.493 0 0 0-1.013-.27 6.597 6.597 0 0 0-2.14.384v-.849a3.835 3.835 0 0 1 1.07-.359 6.13 6.13 0 0 1 1.272-.13 2.543 2.543 0 0 1 1.703.481 1.853 1.853 0 0 1 .543 1.469v4.43h-.989Zm-1.824-.758a2.852 2.852 0 0 0 1.678-.628v-1.24a5.27 5.27 0 0 0-1.289-.163c-.916 0-1.37.359-1.37 1.06a.959.959 0 0 0 .251.718c.201.177.463.268.73.253Zm8.765.759v-4.145a1.475 1.475 0 0 0-.26-.954 1.012 1.012 0 0 0-.81-.302 3.319 3.319 0 0 0-1.882.62v4.78h-1.2v-6.2h1.006l.121.686a3.974 3.974 0 0 1 2.433-.865 1.797 1.797 0 0 1 1.354.473c.323.374.486.86.454 1.354V44h-1.216Zm7.962-6.2-2.806 7.285c-.148.46-.41.877-.762 1.207-.32.254-.72.384-1.127.367a2.57 2.57 0 0 1-.94-.17v-.866c.225.057.456.084.689.082a1.04 1.04 0 0 0 .713-.229c.219-.229.378-.51.462-.815l.236-.62-2.482-6.258h1.29l1.775 5.075 1.711-5.075h1.241v.016ZM24.097 12.743H3.495v-.115c.073-.729.242-1.445.502-2.129A11.408 11.408 0 0 1 8.92 4.397a9.681 9.681 0 0 1 5.124-1.264c1.347-.007 2.683.25 3.932.759a10.062 10.062 0 0 1 3.203 2.056A9.789 9.789 0 0 1 23.31 8.95a8.627 8.627 0 0 1 .811 3.671l-.024.123ZM14.229 0a14.072 14.072 0 0 0-5.724 1.134 13.986 13.986 0 0 0-4.508 3.174 14.356 14.356 0 0 0-2.96 4.74A16.67 16.67 0 0 0 0 15.004a17.541 17.541 0 0 0 1.022 6.118 13.884 13.884 0 0 0 2.918 4.773 13.229 13.229 0 0 0 4.557 3.125 15.16 15.16 0 0 0 5.919 1.117 17 17 0 0 0 7.005-1.427 12.55 12.55 0 0 0 5.278-4.618l-2.554-2.162a10.134 10.134 0 0 1-4.054 3.68 12.1 12.1 0 0 1-5.578 1.387c-1.89.076-3.767-.36-5.432-1.265a11.058 11.058 0 0 1-3.357-3.035 10.855 10.855 0 0 1-1.727-3.614 12.817 12.817 0 0 1-.47-3.06v-.114H27.59v-2.537a14.447 14.447 0 0 0-.892-4.895 13.07 13.07 0 0 0-2.554-4.308 12.749 12.749 0 0 0-4.15-3.035 13.75 13.75 0 0 0-5.766-1.142V0Zm41.659 12.744H35.294v-.115c.073-.729.242-1.445.502-2.129a11.552 11.552 0 0 1 1.695-3.19 11.269 11.269 0 0 1 3.243-2.904 9.625 9.625 0 0 1 5.124-1.265c1.345-.007 2.678.25 3.925.759a9.973 9.973 0 0 1 3.243 2.056 9.712 9.712 0 0 1 2.051 3.002c.533 1.15.81 2.403.81 3.671v.115ZM46.028 0c-1.968-.026-3.92.36-5.732 1.134A13.953 13.953 0 0 0 35.804 4.3a14.225 14.225 0 0 0-2.959 4.74 16.498 16.498 0 0 0-1.046 5.964 17.73 17.73 0 0 0 1.014 6.118 14.006 14.006 0 0 0 2.927 4.773 13.23 13.23 0 0 0 4.556 3.125 15.134 15.134 0 0 0 5.919 1.117 17 17 0 0 0 7.005-1.427 12.526 12.526 0 0 0 5.262-4.618l-2.554-2.162a10.06 10.06 0 0 1-4.094 3.68 12.1 12.1 0 0 1-5.578 1.387c-1.891.076-3.768-.36-5.433-1.265a11.058 11.058 0 0 1-3.356-3.035 10.702 10.702 0 0 1-1.703-3.614 12.813 12.813 0 0 1-.47-3.06v-.114H59.39v-2.537a14.65 14.65 0 0 0-.86-4.895 13.07 13.07 0 0 0-2.553-4.308 12.83 12.83 0 0 0-4.143-3.035 13.806 13.806 0 0 0-5.765-1.142L46.03 0Zm45.08 26.997c-1.637.021-3.26-.301-4.767-.947-1.372-.6-2.61-1.47-3.64-2.562a10.912 10.912 0 0 1-2.287-3.785 14.05 14.05 0 0 1 0-9.268 11.027 11.027 0 0 1 2.287-3.794 11.131 11.131 0 0 1 3.64-2.554 12.479 12.479 0 0 1 9.535 0 10.733 10.733 0 0 1 3.632 2.545 10.811 10.811 0 0 1 2.303 3.803c1.048 2.999 1.048 6.268 0 9.268a10.99 10.99 0 0 1-2.295 3.785 11.066 11.066 0 0 1-3.64 2.562c-1.506.646-3.13.969-4.767.947Zm0-26.997a16.079 16.079 0 0 0-6.032 1.134 13.614 13.614 0 0 0-4.743 3.125 14.498 14.498 0 0 0-3.08 4.772 16.146 16.146 0 0 0-1.096 6.038 16.146 16.146 0 0 0 1.111 6.053 14.5 14.5 0 0 0 3.081 4.773 13.84 13.84 0 0 0 4.727 3.125 16.08 16.08 0 0 0 6.04 1.117 15.868 15.868 0 0 0 6.017-1.117 13.905 13.905 0 0 0 4.744-3.127 14.013 14.013 0 0 0 3.112-4.77 17.052 17.052 0 0 0 0-12.108 14.338 14.338 0 0 0-3.113-4.773 14.075 14.075 0 0 0-4.751-3.108A15.87 15.87 0 0 0 91.109.016V0ZM63.567 29.387h3.495V13.755c-.01-1.355.178-2.705.559-4.006a9.287 9.287 0 0 1 1.735-3.263 7.909 7.909 0 0 1 2.96-2.186c1.305-.553 2.71-.83 4.126-.816V.22c-4.054.082-7.256 1.338-9.47 3.72-3.64 3.908-3.405 9.587-3.405 9.644v15.803Z" fill="#000"/></g><defs><filter id="a" x="-4.01" y="-.011" width="114.978" height="54.671" filterUnits="userSpaceOnUse" color-interpolation-filters="sRGB"><feFlood flood-opacity="0" result="BackgroundImageFix"/><feColorMatrix in="SourceAlpha" values="0 0 0 0 0 0 0 0 0 0 0 0 0 0 0 0 0 0 127 0" result="hardAlpha"/><feOffset dy="4"/><feGaussianBlur stdDeviation="2"/><feComposite in2="hardAlpha" operator="out"/><feColorMatrix values="0 0 0 0 0 0 0 0 0 0 0 0 0 0 0 0 0 0 0.25 0"/><feBlend in2="BackgroundImageFix" result="effect1_dropShadow_1_20"/><feBlend in="SourceGraphic" in2="effect1_dropShadow_1_20" result="shape"/></filter></defs></svg>