<svg aria-hidden="true" style="position: absolute; width: 0; height: 0; overflow: hidden;" version="1.1" xmlns="http://www.w3.org/2000/svg" xmlns:xlink="http://www.w3.org/1999/xlink">
<defs>
<symbol id="icon-svg1" viewBox="0 0 32 32">
<path stroke-linejoin="round" stroke-linecap="round" stroke-miterlimit="4" stroke-width="1.1111" d="M28.804 11.703c0 6.172-5.941 11.177-13.272 11.177-7.329 0-13.271-5.004-13.271-11.177s5.942-11.177 13.271-11.177c7.331 0 13.272 5.004 13.272 11.177z"></path>
<path stroke-linejoin="round" stroke-linecap="round" stroke-miterlimit="4" stroke-width="1.1111" d="M12.199 25.807l-3.381 5.597-2.027-5.157-6.165 1.694 3.38-5.595M18.866 25.807l3.382 5.597 2.027-5.157 6.166 1.694-3.381-5.595"></path>
</symbol>
<symbol id="icon-svg2" viewBox="0 0 32 32">
<path stroke-linejoin="round" stroke-linecap="round" stroke-miterlimit="4" stroke-width="1.1111" d="M20.6 5.162c-0 2.56-2.076 4.635-4.636 4.635s-4.636-2.075-4.636-4.636c0-0 0-0 0-0v0c0-2.56 2.075-4.636 4.636-4.636s4.636 2.075 4.636 4.636v0z"></path>
<path stroke-linejoin="round" stroke-linecap="round" stroke-miterlimit="4" stroke-width="1.1111" d="M0.526 31.177h30.878M23.436 28.371v-5.837c0-0.852-0.692-1.544-1.544-1.544h-11.854c-0.852 0-1.543 0.692-1.543 1.544v5.836"></path>
<path stroke-linejoin="round" stroke-linecap="round" stroke-miterlimit="4" stroke-width="1.1111" d="M27.664 28.338c0.529-0.608 0.852-1.408 0.852-2.284 0-0.462-0.090-0.903-0.253-1.306l0.008 0.023-2.708-6.849c-0.93-2.306-3.149-3.904-5.742-3.905h-7.712c-2.593 0-4.813 1.598-5.728 3.863l-0.015 0.041-2.708 6.849c-0.155 0.38-0.244 0.821-0.244 1.282 0 0.876 0.323 1.676 0.856 2.289l-0.004-0.004"></path>
</symbol>
<symbol id="icon-svg3" viewBox="0 0 32 32">
<path fill="none" stroke="#231f20" style="stroke: var(--color1, #231f20)" stroke-linejoin="round" stroke-linecap="round" stroke-miterlimit="4" stroke-width="1.1111" d="M1.228 22.308v-21.538h22.274c0.625 0 1.175 0.588 1.351 1.445l1.796 10.794 3.327 1.733c0.447 0.355 0.725 1.028 0.725 1.76v5.805M15.964 22.308v-17.436M27.595 26.409h3.809M11.352 26.409h9.227M0.526 26.409h3.808"></path>
<path fill="none" stroke="#231f20" style="stroke: var(--color1, #231f20)" stroke-linejoin="round" stroke-linecap="round" stroke-miterlimit="4" stroke-width="1.1111" d="M11.353 26.41c0 2.832-1.571 5.128-3.508 5.128s-3.509-2.296-3.509-5.128 1.572-5.128 3.509-5.128c1.938 0 3.508 2.296 3.508 5.128z"></path>
<path d="M9.16 26.41c0 1.062-0.589 1.924-1.316 1.924s-1.316-0.862-1.316-1.924c0-1.061 0.589-1.923 1.316-1.923s1.316 0.862 1.316 1.923z"></path>
<path fill="none" stroke="#231f20" style="stroke: var(--color1, #231f20)" stroke-linejoin="round" stroke-linecap="round" stroke-miterlimit="4" stroke-width="1.1111" d="M27.595 26.41c0 2.832-1.572 5.128-3.508 5.128s-3.509-2.296-3.509-5.128 1.572-5.128 3.509-5.128c1.938 0 3.508 2.296 3.508 5.128z"></path>
<path d="M25.402 26.41c0 1.062-0.589 1.924-1.316 1.924s-1.316-0.862-1.316-1.924c0-1.061 0.589-1.923 1.316-1.923s1.316 0.862 1.316 1.923z"></path>
<path fill="none" stroke="#231f20" style="stroke: var(--color1, #231f20)" stroke-linejoin="round" stroke-linecap="round" stroke-miterlimit="4" stroke-width="1.1111" d="M26.651 13.008h-6.812v-8.137h5.457"></path>
</symbol>
<symbol id="icon-svg4" viewBox="0 0 32 32">
<path stroke-linejoin="round" stroke-linecap="round" stroke-miterlimit="4" stroke-width="1.1111" d="M4.036 3.68h-1.781c-0.955 0-1.729 0.886-1.729 1.98v0.004c0 3.949 1.688 7.591 4.31 9.968M27.895 3.68h1.78c0.954 0 1.728 0.886 1.728 1.98v0.004c0 3.949-1.688 7.591-4.31 9.968"></path>
<path stroke-linejoin="round" stroke-linecap="round" stroke-miterlimit="4" stroke-width="1.1111" d="M8.26 30.185h15.412M15.964 21.297v8.889"></path>
</symbol>
<symbol id="icon-menu_40px" viewBox="0 0 32 32">
<path d="M6.4 11.733v-2.133h19.2v2.133h-19.2zM6.4 17.067h19.2v-2.133h-19.2v2.133zM6.4 22.4h19.2v-2.133h-19.2v2.133z"></path>
</symbol>
<symbol id="icon-menu" viewBox="0 0 48 32">
<path d="M0 5.334v-5.334h48v5.334h-48zM0 18.666h48v-5.332h-48v5.332zM0 32h48v-5.334h-48v5.334z"></path>
</symbol>
<symbol id="icon-check1" viewBox="0 0 42 32">
<path fill="#fff" style="fill: var(--color2, #fff); stroke: var(--color2, #fff)" stroke="#fff" stroke-linejoin="miter" stroke-linecap="butt" stroke-miterlimit="4" stroke-width="0.64" d="M6.262 15.206l-0.221-0.211-0.221 0.208-3.085 2.925 0.243 0.234 11.408 10.88 0.221-0.211 24.256-23.139-0.243-0.23-3.043-2.902-0.221 0.211-20.97 19.987-8.125-7.75z"></path>
</symbol>
</defs>
</svg>
