<svg width="86" height="38" viewBox="0 0 86 38" fill="none" xmlns="http://www.w3.org/2000/svg">
<path d="M3.21269 35.0193L3.13449 34.5128C2.90553 34.7112 2.64293 34.8673 2.35901 34.9739C2.0919 35.0822 1.80673 35.1394 1.51837 35.1427C1.31655 35.1535 1.1146 35.124 0.92437 35.056C0.734138 34.988 0.559448 34.8828 0.410541 34.7466C0.26954 34.6112 0.159342 34.4472 0.0873919 34.2658C0.0154421 34.0843 -0.0165841 33.8895 -0.00652406 33.6947C-0.0147364 33.4791 0.0268223 33.2646 0.114948 33.0676C0.203074 32.8705 0.335415 32.6963 0.501774 32.5583C0.891605 32.262 1.37401 32.1125 1.86375 32.1362C2.27966 32.1424 2.69326 32.1991 3.09539 32.3051V31.6557C3.11006 31.5223 3.09615 31.3874 3.05458 31.2598C3.01302 31.1322 2.94475 31.0148 2.85428 30.9154C2.61745 30.7487 2.32825 30.6726 2.0397 30.7012C1.45547 30.7085 0.87644 30.8116 0.325824 31.0064V30.331C0.596927 30.1942 0.886768 30.098 1.18602 30.0453C1.52247 29.9751 1.86539 29.9403 2.20913 29.9414C2.69463 29.9013 3.17833 30.0374 3.57111 30.3245C3.72637 30.4751 3.84653 30.6579 3.92311 30.8598C3.99968 31.0618 4.03079 31.2781 4.01424 31.4934V35.0193H3.21269ZM1.74645 34.4154C2.23819 34.3968 2.71099 34.2216 3.09539 33.9154V32.9284C2.75666 32.843 2.40867 32.7994 2.05925 32.7986C1.32939 32.7986 0.957938 33.0843 0.957938 33.6427C0.951336 33.7471 0.966449 33.8518 1.00233 33.9501C1.03822 34.0485 1.0941 34.1383 1.16647 34.2141C1.24591 34.2848 1.33868 34.3391 1.43938 34.3736C1.54008 34.4082 1.64669 34.4224 1.75297 34.4154H1.74645ZM8.80396 35.0193V31.7206C8.82628 31.4499 8.74993 31.1801 8.58891 30.9609C8.50479 30.8754 8.40274 30.8096 8.29008 30.7681C8.17742 30.7265 8.05693 30.7103 7.93725 30.7206C7.39477 30.7288 6.86755 30.9009 6.42539 31.2141V35.0193H5.45441V30.0843H6.26248L6.36023 30.6297C6.91764 30.1913 7.60512 29.9492 8.31522 29.9414C8.5118 29.9271 8.70923 29.9531 8.89531 30.0179C9.08138 30.0827 9.25213 30.1848 9.39698 30.318C9.53119 30.4671 9.63338 30.6419 9.69726 30.8317C9.76114 31.0216 9.78536 31.2224 9.76843 31.4219V35.0453L8.80396 35.0193ZM50.0086 34.831C49.6041 35.0315 49.157 35.1317 48.7053 35.1232C48.3827 35.1443 48.0593 35.0973 47.7561 34.9854C47.4529 34.8736 47.1768 34.6992 46.9458 34.4739C46.5425 33.9197 46.3254 33.2526 46.3254 32.568C46.3254 31.8835 46.5425 31.2164 46.9458 30.6622C47.1798 30.4353 47.4592 30.2602 47.7658 30.1483C48.0723 30.0364 48.3992 29.9902 48.7248 30.0128C49.1507 30.0104 49.5717 30.1036 49.9565 30.2856V30.9739C49.6083 30.8523 49.2435 30.7844 48.8747 30.7726C48.6596 30.7522 48.4427 30.7789 48.2389 30.8506C48.0352 30.9224 47.8497 31.0376 47.6952 31.1882C47.4246 31.5648 47.2975 32.0253 47.3368 32.4869V32.6102C47.2994 33.0726 47.4288 33.5332 47.7017 33.909C47.852 34.0578 48.0331 34.1721 48.2323 34.2439C48.4316 34.3157 48.6441 34.3432 48.8552 34.3245C49.2473 34.3176 49.6361 34.2519 50.0086 34.1297V34.831ZM53.0454 35.1622C52.7226 35.1805 52.3996 35.1284 52.0991 35.0095C51.7986 34.8906 51.5277 34.7078 51.3054 34.4739C50.8946 33.9166 50.6731 33.2432 50.6731 32.5518C50.6731 31.8604 50.8946 31.187 51.3054 30.6297C51.7749 30.1877 52.3962 29.9414 53.0421 29.9414C53.688 29.9414 54.3094 30.1877 54.7788 30.6297C55.1896 31.187 55.4111 31.8604 55.4111 32.5518C55.4111 33.2432 55.1896 33.9166 54.7788 34.4739C54.5578 34.7077 54.2881 34.8905 53.9886 35.0094C53.6892 35.1283 53.3672 35.1804 53.0454 35.1622ZM53.0454 34.383C53.9577 34.383 54.4204 33.7726 54.4204 32.5453C54.4204 31.318 53.9577 30.7206 53.0454 30.7206C52.1331 30.7206 51.6704 31.3245 51.6704 32.5453C51.6704 33.7661 52.1265 34.383 53.0454 34.383ZM62.9181 35.0193V31.6687C62.9376 31.4171 62.8735 31.1661 62.7356 30.9544C62.6629 30.8726 62.572 30.8089 62.4702 30.7683C62.3683 30.7277 62.2584 30.7114 62.1491 30.7206C61.6399 30.7299 61.1434 30.8806 60.7155 31.1557C60.7189 31.2054 60.7189 31.2553 60.7155 31.3051V35.0193H59.751V31.6687C59.7677 31.4173 59.7038 31.1672 59.5685 30.9544C59.4958 30.8726 59.4049 30.8089 59.3031 30.7683C59.2012 30.7277 59.0913 30.7114 58.982 30.7206C58.4749 30.7243 57.9796 30.873 57.5549 31.1492V35.0453H56.5904V30.1102H57.3985L57.4962 30.6102C58.0243 30.2144 58.6607 29.988 59.3209 29.9609C59.5713 29.9319 59.8245 29.9806 60.0461 30.1003C60.2676 30.22 60.4468 30.4049 60.5591 30.6297C61.1181 30.1943 61.8046 29.9526 62.514 29.9414C62.7036 29.9283 62.8938 29.9551 63.0723 30.02C63.2508 30.0849 63.4136 30.1864 63.5502 30.318C63.8028 30.6279 63.9222 31.0247 63.8825 31.4219V35.0453L62.9181 35.0193ZM65.3097 37.0193V30.0843H66.1177L66.209 30.5908C66.6566 30.1747 67.2456 29.9427 67.8577 29.9414C68.1401 29.9256 68.4223 29.9761 68.6815 30.0889C68.9407 30.2017 69.1697 30.3736 69.35 30.5908C69.7403 31.1316 69.9335 31.7892 69.8974 32.4544C69.939 33.1514 69.7338 33.8408 69.3174 34.4025C69.1378 34.635 68.9052 34.8216 68.639 34.9469C68.3727 35.0722 68.0803 35.1327 67.786 35.1232C67.2269 35.1346 66.685 34.9298 66.2741 34.5518V37.0193H65.3097ZM67.584 30.7206C67.1124 30.7258 66.6551 30.883 66.2807 31.1687V33.8765C66.6517 34.1709 67.1098 34.3352 67.584 34.344C68.4833 34.344 68.9264 33.7401 68.9264 32.5388C68.9648 32.0594 68.8508 31.58 68.6006 31.1687C68.4831 31.0143 68.3282 30.8921 68.1504 30.8137C67.9726 30.7354 67.7777 30.7033 67.584 30.7206ZM73.9964 35.0193L73.9182 34.5128C73.6892 34.7112 73.4266 34.8673 73.1427 34.9739C72.8733 35.0821 72.586 35.1393 72.2955 35.1427C72.0938 35.1528 71.892 35.1229 71.7019 35.055C71.5118 34.987 71.337 34.8822 71.1877 34.7466C71.0489 34.6099 70.9406 34.4455 70.8698 34.2643C70.7991 34.083 70.7675 33.8889 70.7771 33.6947C70.7681 33.4796 70.8087 33.2654 70.8957 33.0684C70.9826 32.8715 71.1137 32.697 71.2789 32.5583C71.6707 32.261 72.1555 32.1115 72.6474 32.1362C73.0633 32.1424 73.4769 32.1991 73.8791 32.3051V31.6557C73.8921 31.5224 73.8774 31.3879 73.8359 31.2605C73.7944 31.1332 73.727 31.0157 73.6379 30.9154C73.4011 30.7487 73.1119 30.6726 72.8234 30.7012C72.237 30.7079 71.6557 30.811 71.103 31.0064V30.331C71.3741 30.1942 71.6639 30.098 71.9632 30.0453C72.2997 29.9754 72.6425 29.9406 72.9863 29.9414C73.4737 29.9026 73.959 30.0385 74.3548 30.3245C74.5089 30.4757 74.6278 30.6587 74.7032 30.8607C74.7787 31.0626 74.8088 31.2786 74.7914 31.4934V35.0193H73.9964ZM72.5301 34.4154C73.0219 34.3968 73.4947 34.2216 73.8791 33.9154V32.9284C73.5403 32.843 73.1923 32.7994 72.8429 32.7986C72.1065 32.7986 71.7416 33.0843 71.7416 33.6427C71.7341 33.7467 71.7482 33.8511 71.783 33.9494C71.8177 34.0477 71.8724 34.1378 71.9436 34.2141C72.1052 34.3551 72.3157 34.4273 72.5301 34.4154ZM79.5746 35.0193V31.7206C79.5954 31.451 79.5217 31.1825 79.3661 30.9609C79.2819 30.8754 79.1799 30.8096 79.0672 30.7681C78.9546 30.7265 78.8341 30.7103 78.7144 30.7206C78.1719 30.7288 77.6447 30.9009 77.2025 31.2141V35.0193H76.2381V30.0843H77.0461L77.1439 30.6297C77.701 30.1909 78.3887 29.9488 79.0989 29.9414C79.2965 29.927 79.4949 29.9529 79.6821 30.0177C79.8692 30.0824 80.0411 30.1847 80.1871 30.318C80.4467 30.6153 80.5779 31.0028 80.5521 31.396V35.0193H79.5746ZM85.9739 30.0843L83.7192 35.883C83.6001 36.2499 83.3893 36.5806 83.1066 36.844C82.8492 37.0458 82.528 37.1494 82.2008 37.1362C81.9425 37.138 81.6861 37.0917 81.4449 36.9999V36.3115C81.626 36.3566 81.8121 36.3785 81.9988 36.3765C82.2059 36.3885 82.4101 36.3237 82.5722 36.1947C82.7479 36.0121 82.8756 35.789 82.9437 35.5453L83.1327 35.0518L81.1386 30.0713H82.1747L83.6019 34.1102L84.9769 30.0713H85.9739V30.0843ZM19.3674 10.1427H2.80866V10.0518C2.86734 9.47152 3.00321 8.90159 3.21269 8.357C3.91312 6.32268 5.31467 4.60169 7.16829 3.49986C8.42189 2.79278 9.84713 2.44447 11.2868 2.49336C12.3697 2.48783 13.4433 2.69296 14.4474 3.09726C15.4018 3.47505 16.2754 4.03038 17.0214 4.73362C17.7396 5.4147 18.3212 6.22564 18.7353 7.12323C19.1667 8.03728 19.3892 9.03526 19.387 10.0453L19.3674 10.1427ZM11.4367 -0.000142041C9.85683 -0.0210298 8.28994 0.28637 6.83594 0.902455C5.47227 1.4971 4.24069 2.3557 3.21269 3.42843C2.17885 4.51813 1.37061 5.80012 0.834122 7.20116C0.266804 8.71693 -0.0159414 10.3237 -7.27735e-06 11.9414C-0.0205913 13.6006 0.257506 15.2501 0.821089 16.8115C1.33554 18.2237 2.13383 19.5163 3.16708 20.6102C4.19904 21.6863 5.44691 22.5337 6.82942 23.0973C8.33999 23.7061 9.95726 24.0085 11.5866 23.9869C13.5228 24.0077 15.4415 23.6205 17.2169 22.8505C18.9526 22.0516 20.424 20.7768 21.4593 19.1752L19.4065 17.4544C18.6105 18.7098 17.4833 19.723 16.1482 20.383C14.7637 21.1025 13.2263 21.481 11.6648 21.4869C10.1451 21.548 8.63695 21.2003 7.29862 20.4804C6.24194 19.869 5.32344 19.0466 4.60073 18.0648C3.96231 17.2004 3.49156 16.2248 3.21269 15.1882C2.98786 14.3948 2.86094 13.5771 2.83473 12.7531V12.6622H22.1761V10.6427C22.1664 9.31235 21.9238 7.99387 21.4593 6.74661C21.0039 5.48227 20.3068 4.31792 19.4065 3.31804C18.4702 2.29578 17.335 1.47394 16.07 0.902455C14.6088 0.272106 13.0287 -0.0379257 11.4367 -0.00663569V-0.000142041ZM44.9191 10.1427H28.3669V10.0518C28.4256 9.47152 28.5614 8.90159 28.7709 8.357C29.088 7.44454 29.5477 6.58767 30.1329 5.81804C30.8428 4.88608 31.7282 4.10088 32.7396 3.50635C33.9923 2.79704 35.4182 2.44858 36.8581 2.49986C37.9389 2.49433 39.0103 2.69948 40.0121 3.10375C40.9789 3.47627 41.8641 4.03197 42.6188 4.74012C43.3148 5.42584 43.8742 6.23665 44.2675 7.12973C44.6958 8.0448 44.9182 9.0421 44.9191 10.0518V10.1427ZM36.9949 -0.000142041C35.413 -0.0209829 33.8439 0.286397 32.3877 0.902455C31.0288 1.49606 29.8018 2.35242 28.7774 3.42194C27.7414 4.50994 26.9329 5.79239 26.3989 7.19466C25.8255 8.71123 25.5404 10.3209 25.5582 11.9414C25.5388 13.6 25.8146 15.2489 26.3728 16.8115C26.8917 18.223 27.6919 19.5152 28.7253 20.6102C29.7573 21.6863 31.0051 22.5337 32.3877 23.0973C33.8981 23.7066 35.5154 24.009 37.1448 23.9869C39.081 24.0077 40.9997 23.6205 42.7752 22.8505C44.5066 22.0505 45.9736 20.7756 47.0045 19.1752L44.9517 17.4544C44.1492 18.7163 43.0096 19.7305 41.6608 20.383C40.2763 21.1025 38.7389 21.481 37.1774 21.4869C35.6577 21.548 34.1496 21.2003 32.8112 20.4804C31.7545 19.869 30.8361 19.0466 30.1133 18.0648C29.4793 17.2004 29.015 16.2244 28.7449 15.1882C28.52 14.3948 28.3931 13.5771 28.3669 12.7531V12.6622H47.7343V10.6427C47.7297 9.31418 47.4961 7.9963 47.0436 6.74661C46.5882 5.48227 45.8911 4.31792 44.9908 3.31804C44.0552 2.29784 42.9226 1.47625 41.6608 0.902455C40.1992 0.273461 38.6193 -0.0365124 37.0275 -0.00663569L36.9949 -0.000142041ZM73.2274 21.4869C71.9115 21.504 70.6064 21.2475 69.3956 20.7336C68.2929 20.2564 67.2978 19.563 66.4696 18.6947C65.6566 17.8263 65.0311 16.8008 64.632 15.6817C63.7894 13.2945 63.7894 10.6923 64.632 8.30505C65.0326 7.18476 65.6579 6.15743 66.4696 5.28557C67.2982 4.41927 68.2933 3.72805 69.3956 3.2531C71.8507 2.24858 74.6041 2.24858 77.0592 3.2531C78.1628 3.71886 79.157 4.40862 79.9783 5.27843C80.7996 6.14824 81.43 7.17902 81.8293 8.30505C82.6719 10.6923 82.6719 13.2945 81.8293 15.6817C81.4269 16.8007 80.7994 17.826 79.9851 18.6947C79.1581 19.5644 78.1628 20.258 77.0592 20.7336C75.8486 21.2481 74.5434 21.5046 73.2274 21.4869ZM73.2274 -0.000142041C71.5683 -0.0104704 69.9225 0.295913 68.379 0.902455C66.9473 1.45586 65.6484 2.30322 64.5668 3.38947C63.4974 4.48013 62.6558 5.77126 62.0905 7.18817C61.4899 8.71864 61.1912 10.3502 61.2107 11.9934C61.1937 13.6418 61.4968 15.2779 62.1035 16.8115C62.6688 18.2285 63.5105 19.5196 64.5798 20.6102C65.661 21.6908 66.9544 22.5375 68.379 23.0973C69.9254 23.7002 71.5734 24.0022 73.2339 23.9869C74.8882 24.0039 76.5301 23.7018 78.0692 23.0973C79.4983 22.5374 80.7964 21.6904 81.8828 20.609C82.9692 19.5276 83.8205 18.235 84.3839 16.8115C85.5742 13.7089 85.5742 10.2778 84.3839 7.17518C83.8141 5.7544 82.9631 4.46249 81.8815 3.37648C80.7899 2.30249 79.4907 1.46077 78.0627 0.902455C76.5236 0.297926 74.8817 -0.00416279 73.2274 0.012844V-0.000142041ZM51.0904 23.3895H53.8991V10.9479C53.8912 9.86892 54.0427 8.79464 54.3487 7.7596C54.6336 6.80917 55.1079 5.92576 55.7433 5.1622C56.3881 4.40414 57.2029 3.80798 58.1218 3.42194C59.1714 2.98217 60.3003 2.76118 61.4388 2.77258V0.175182C58.1805 0.240117 55.6064 1.24012 53.8274 3.13622C50.9014 6.24661 51.0904 10.7661 51.0904 10.8115V23.3895Z" fill="white"/>
</svg>
