<svg width="350" height="30" viewBox="0 0 350 30" xmlns="http://www.w3.org/2000/svg">
<path d="M348.126 25.6505C347.18 25.6505 346.234 26.5954 346.234 27.5403C346.234 28.7214 347.18 29.4302 348.126 29.4302C349.072 29.4302 350.018 28.4852 350.018 27.5403C350.018 26.3592 349.309 25.6505 348.126 25.6505ZM280.727 29.4302H289.241V28.7214L288.295 28.4852C287.349 28.249 287.113 27.7766 287.113 26.5955V15.2569H289.004C290.187 15.2569 290.896 15.493 290.896 18.0915L291.133 23.5246C291.369 28.249 292.788 29.6663 295.153 29.6663C297.518 29.6663 298.227 28.0127 298.227 25.6505V24.7057H297.281V25.4144C297.281 27.0679 297.045 28.0127 296.572 28.0127C296.099 28.0127 296.099 27.5403 295.863 25.6505L295.626 21.8711C295.39 16.9104 294.68 15.2568 290.896 14.5481C294.444 13.6033 296.572 11.0048 296.572 7.46153C296.572 2.73712 292.788 0.374914 289.241 0.374914H274.815V1.08369L275.525 1.31985C276.944 1.55607 277.18 2.50101 277.18 5.8081V22.8159C277.18 26.5954 276.234 28.4852 273.633 28.4852C271.504 28.4852 270.322 27.5403 270.322 23.2883V3.20959C270.322 2.02849 270.795 1.79224 271.741 1.55602L272.923 1.31985V0.611221H264.173V1.31985L265.119 1.55602C266.065 1.79224 266.302 2.02849 266.302 3.20959V23.0522C266.302 27.5404 268.903 29.9025 272.687 29.9025C276.707 29.9025 278.599 27.5403 278.599 22.8159V4.39069C278.599 2.02849 279.072 1.31985 280.964 1.31985C282.383 1.31985 283.092 1.79227 283.092 3.20959V26.8316C283.092 28.0127 282.619 28.4852 281.91 28.7214L280.964 28.9577V29.6663H280.727V29.4302ZM337.721 3.20959C337.721 2.02849 338.194 1.55602 338.903 1.55602L340.085 1.31985V0.611221H331.336V1.31985L332.281 1.55602C333.227 1.79224 333.464 2.02849 333.464 3.20959V27.0679C333.464 28.249 332.991 28.7214 331.808 28.7214C330.39 28.7214 330.153 28.249 329.444 25.6505L324.004 0.138751H322.349L317.146 24.7057C316.673 27.5404 316.2 28.0128 315.018 28.4852L314.308 28.7214V29.4302H320.221V28.7214L319.275 28.4852C318.092 28.249 317.619 27.5403 318.329 24.4694L321.403 8.87894L324.714 25.6505C325.187 28.0127 325.187 28.4852 323.295 28.9577L322.349 29.1938V29.9025H344.815V20.2175H344.106C343.633 24.7057 342.687 28.7214 339.14 28.7214H337.484L337.721 3.20959ZM324.241 21.6348V20.4537H318.565L318.329 21.6348H324.241ZM300.592 3.68206V23.997C300.592 27.0678 300.592 28.4852 299.173 28.7214L298.464 28.9577V29.6663H304.613V28.9577C302.011 28.4852 302.011 27.5403 302.011 24.4694V5.09932L301.065 4.15453L311.471 29.6663H313.126V6.04426C313.126 2.50096 313.126 1.79229 314.781 1.31985L315.254 1.08369V0.374914H308.869V1.08369L309.579 1.31985C311.707 1.79229 311.707 2.50101 311.707 5.8081V20.4537L312.18 20.2175L304.376 0.138751H298.464V0.847383L298.937 1.08369C299.41 1.31991 299.883 2.02851 300.592 3.68206ZM287.113 1.08369H288.768C290.423 1.08369 292.079 2.26476 292.079 7.69784C292.079 13.3671 290.896 13.8395 288.531 13.8395H287.113V1.08369ZM258.734 14.5481C258.734 26.5954 257.788 28.4852 255.423 28.4852C253.295 28.4852 252.349 26.8317 252.349 14.7845C252.349 3.20965 253.295 1.31985 255.423 1.31985C257.788 1.08363 258.734 2.97334 258.734 14.5481ZM263.464 14.7845C263.464 6.75295 260.863 0.138751 255.66 0.138751C250.457 0.138751 247.856 6.75295 247.856 14.7845C247.856 22.8159 250.457 29.4302 255.66 29.4302C260.863 29.6664 263.464 23.0522 263.464 14.7845ZM245.254 3.20959C245.254 2.02849 245.491 1.55602 246.437 1.55602L247.383 1.31985V0.611221H238.633V1.31985L239.579 1.55602C240.525 1.79224 240.998 2.02849 240.998 3.20959V23.7608C240.998 26.5954 240.761 28.9577 238.633 28.9577C237.214 28.9577 236.268 28.0128 236.268 27.0679C236.504 25.6506 238.633 25.8868 238.869 23.7608C239.106 22.3435 237.923 21.6348 237.214 21.3986C235.795 21.1624 234.376 22.3434 234.376 24.4694C234.376 27.3041 236.268 29.9025 239.342 29.9025C242.89 29.9025 245.491 27.5404 245.491 23.0522L245.254 3.20959ZM103.599 3.20959C103.599 2.02849 104.072 1.55602 104.781 1.55602L105.964 1.31985V0.611221H97.2139V1.31985L98.1598 1.55602C99.1058 1.79224 99.3423 2.02849 99.3423 3.20959V27.0679C99.3423 28.249 98.8693 28.7214 97.6869 28.7214C96.2679 28.7214 96.0315 28.249 95.322 25.6505L89.8828 0.138751H88.2274L83.0247 24.7057C82.5517 27.5404 82.0788 28.0128 80.8963 28.4852L80.1869 28.7214V29.4302H86.099V28.7214L85.1531 28.4852C83.9706 28.249 83.4977 27.5403 84.2071 24.4694L87.2815 8.87894L90.5923 25.6505C91.0653 28.0127 91.0653 28.4852 89.1734 28.9577L88.2274 29.1938V29.9025H110.93V20.2175H110.221C109.748 24.7057 108.802 28.7214 105.254 28.7214H103.599V3.4459V3.20959ZM221.606 1.08369H222.552C225.153 1.08369 226.099 5.3356 226.336 9.58757H227.045V-0.0974121H211.673V9.58757H212.383C212.619 5.09938 213.565 1.08369 216.167 1.08369H217.113V26.3592C217.113 27.5403 216.64 28.0128 215.93 28.249L214.748 28.4852V29.1938H223.734V28.4852L222.315 28.249C221.606 28.0128 221.133 27.7766 221.133 26.5955L221.606 1.08369ZM202.214 14.7845H203.633C205.525 14.7845 205.998 15.4931 206.471 20.2175H207.18V8.64263H206.471C205.998 12.1859 205.525 13.8395 203.633 13.8395H202.214V1.31985H205.052C208.363 1.31985 209.072 5.33554 209.545 9.82373H210.254V0.138751H195.829V0.847383L196.775 1.08369C197.721 1.31991 197.957 2.02854 197.957 2.97343V26.5955C197.957 27.7766 197.484 28.249 196.775 28.4852L195.829 28.7214V29.4302H210.727V19.745H210.254C209.781 24.2332 209.308 28.249 205.525 28.249H202.687L202.214 14.7845ZM186.369 14.7845H187.788C189.68 14.7845 190.153 15.4931 190.626 20.2175H191.336V8.64263H190.626C190.153 12.1859 189.68 13.8395 187.788 13.8395H186.369V1.31985H189.207C192.518 1.31985 193.227 5.57176 193.7 9.82373H194.41V0.138751H179.511V0.847383L180.93 1.08369C181.876 1.31991 182.113 2.02854 182.113 2.97343V26.5955C182.113 27.7766 181.64 28.249 180.93 28.4852L179.984 28.7214V29.4302H194.883V19.745H194.173C193.7 24.2332 193.227 28.249 189.444 28.249H186.606V15.0206H186.369V14.7845ZM168.869 1.08369H170.052C171.707 1.08369 173.363 2.26476 173.363 7.69784C173.363 13.1309 172.18 13.8395 169.815 13.8395H168.869V1.08369ZM162.484 29.4302H170.998V28.7214L170.052 28.4852C169.106 28.249 168.869 27.7766 168.869 26.5955V15.2569H170.525C171.707 15.2569 172.417 15.7292 172.417 18.0915L172.653 23.5246C172.89 28.249 174.308 29.6663 176.673 29.6663C179.038 29.6663 179.748 28.0127 179.748 25.6505V24.7057H178.802V25.4144C178.802 27.0679 178.565 28.0127 178.092 28.0127C177.619 28.0127 177.619 27.5403 177.383 25.6505L177.146 21.8711C176.91 16.6742 176.2 15.2568 172.417 14.5481C175.964 13.6033 178.092 11.0048 178.092 7.46153C178.092 2.73712 174.308 0.374914 170.761 0.374914H162.721V1.08369L163.667 1.31985C164.613 1.55607 164.849 1.79232 164.849 2.97343V26.5955C164.849 27.7766 164.376 28.249 163.667 28.4852L162.721 28.7214V29.6663H162.484V29.4302ZM156.099 1.08369H157.045C159.646 1.08369 160.592 5.3356 160.829 9.58757H161.538V-0.0974121H146.167V9.58757H146.876C147.113 5.09938 148.058 1.08369 150.66 1.08369H151.606V26.3592C151.606 27.5403 151.133 28.0128 150.423 28.249L149.241 28.4852V29.1938H158.227V28.4852L157.045 28.249C155.863 28.0128 155.863 27.0678 155.863 26.3592V1.08369H156.099ZM146.403 21.8711C146.403 13.3671 136.944 11.0049 136.944 4.39069C136.944 2.97337 137.417 1.08369 139.545 1.08369C142.619 1.08369 143.802 5.09932 144.275 9.82373H144.984V0.138751H144.511C144.275 1.08363 144.038 1.55602 143.329 1.55602C142.383 1.55602 141.91 0.138751 139.545 0.138751C135.998 0.138751 133.633 3.20967 133.633 6.9892C133.633 14.0758 143.092 17.1466 143.092 23.997C143.092 27.0678 141.673 28.7214 139.781 28.7214C136.944 28.7214 135.052 25.4144 134.579 19.9813H133.869V29.6663H134.342C134.815 28.249 135.288 28.249 135.761 28.249C136.471 28.249 137.417 29.9025 139.781 29.9025C143.092 29.43 146.403 26.3593 146.403 21.8711ZM118.498 3.20959C118.498 2.02849 118.971 1.55602 119.68 1.55602L120.863 1.31985V0.611221H112.113V1.31985L113.058 1.55602C114.004 1.79224 114.241 2.02849 114.241 3.20959V26.8316C114.241 28.0127 113.768 28.4852 113.058 28.7214L112.113 28.9577V29.6663H125.829V19.9813H125.119C124.646 24.4695 123.7 28.4852 120.153 28.4852H118.498C118.498 28.249 118.498 3.20959 118.498 3.20959ZM90.3558 21.6348V20.4537H84.6801L84.4436 21.6348H90.3558ZM65.7612 29.4302H67.6531L71.6734 8.40647H71.2004L75.4571 29.4302H76.8761L82.0788 4.86316C82.5517 2.26473 83.0247 1.31991 83.9706 1.08369L84.6801 0.847383V0.138751H78.768V0.847383L79.7139 1.08369C80.8963 1.31991 81.3693 2.02846 80.6598 5.09932L77.349 21.6348H77.822L74.5112 4.15453C74.2747 2.50098 74.0382 1.0836 75.4571 0.847383L76.4031 0.611221V-0.0974121H68.3625V0.611221L68.8355 0.847383C69.7815 1.0836 69.7815 1.55605 70.2544 3.20959L71.6734 9.58757L71.4369 5.8081L68.599 21.1624H69.072L65.7612 4.15453C65.2882 2.50098 65.2882 1.0836 66.7071 0.847383L67.4166 0.611221V-0.0974121H59.1396V0.611221L59.849 0.847383C60.5585 1.0836 61.0315 1.31985 61.5044 3.68206L65.7612 29.4302ZM43.0585 14.7845H44.4774C46.3693 14.7845 46.8423 15.4931 47.3152 20.2175H48.0247V8.64263H47.3152C46.8423 12.1859 46.3693 13.8395 44.4774 13.8395H43.0585V1.31985H45.8963C49.2071 1.31985 49.9166 5.57176 50.3896 9.82373H51.099V0.138751H36.6733V0.847383L37.6193 1.08369C38.5652 1.31991 38.8017 2.02854 38.8017 2.97343V26.5955C38.8017 27.7766 38.3288 28.249 37.6193 28.4852L36.6733 28.7214V29.4302H51.8085V19.745H51.099C50.626 24.2332 50.1531 28.249 46.3693 28.249H43.5315V15.0206H43.0585V14.7845ZM16.3355 29.4302H24.849V28.7214L23.9031 28.4852C23.1936 28.249 22.7206 27.7766 22.7206 26.5955V15.0206H29.1058V26.5955C29.1058 27.7766 28.6328 28.249 27.9234 28.4852L26.9774 28.7214V29.4302H35.4909V28.7214L34.545 28.4852C33.599 28.249 33.3625 27.7766 33.3625 26.5955V2.97343C33.3625 1.79232 33.8355 1.31985 34.545 1.31985L35.4909 1.08369V0.374914H26.9774V1.08369L28.1598 1.31985C28.8693 1.55607 29.3423 1.79232 29.3423 2.97343V13.8395H22.9571V2.97343C22.9571 1.79232 23.4301 1.55607 24.1396 1.31985L25.0855 1.08369V0.374914H16.3355V1.08369L17.2815 1.31985C18.2274 1.55607 18.4639 1.79232 18.4639 2.97343V26.5955C18.4639 27.7766 17.9909 28.249 17.2815 28.4852L16.3355 28.7214V29.4302ZM9.95039 1.08369H10.8963C13.4977 1.08369 14.4436 5.3356 14.6801 9.58757H15.3896V-0.0974121H0.0179443V9.58757H0.963894C1.20038 5.09938 2.14632 1.08369 4.74767 1.08369H5.69362V26.3592C5.69362 27.5403 5.22065 28.0128 4.51119 28.249L3.32876 28.4852V29.1938H12.3153V28.4852L10.8963 28.249C10.1869 28.0128 9.71389 27.7766 9.71389 26.5955L9.95039 1.08369Z" fill="white"/>
</svg>
